<svg width="36" height="36" viewBox="0 0 36 36" fill="none" xmlns="http://www.w3.org/2000/svg">
<path d="M5.44922 18.8508L18.7312 30.3785C18.8332 30.4664 18.9633 30.5156 19.1004 30.5156H22.2117C22.4719 30.5156 22.5914 30.1922 22.3945 30.0234L10.0828 19.3359H30.6562C30.8109 19.3359 30.9375 19.2094 30.9375 19.0547V16.9453C30.9375 16.7906 30.8109 16.6641 30.6562 16.6641H10.0863L22.398 5.97656C22.5949 5.8043 22.4754 5.48438 22.2152 5.48438H18.9984C18.9316 5.48438 18.8648 5.50898 18.8156 5.55469L5.44922 17.1492C5.32751 17.2551 5.22993 17.3858 5.16306 17.5325C5.09619 17.6793 5.06158 17.8387 5.06158 18C5.06158 18.1613 5.09619 18.3207 5.16306 18.4675C5.22993 18.6142 5.32751 18.7449 5.44922 18.8508Z" fill="white"/>
</svg>
