<svg width="23" height="23" viewBox="0 0 23 23" fill="none" xmlns="http://www.w3.org/2000/svg">
<path d="M19.7656 2.51562H3.23438C2.83682 2.51562 2.51562 2.83682 2.51562 3.23438V19.7656C2.51562 20.1632 2.83682 20.4844 3.23438 20.4844H19.7656C20.1632 20.4844 20.4844 20.1632 20.4844 19.7656V3.23438C20.4844 2.83682 20.1632 2.51562 19.7656 2.51562ZM19.0469 19.0469H14.9118V13.526H17.2478L17.5981 10.8149H14.9118V9.0832C14.9118 8.29707 15.1297 7.7625 16.255 7.7625H17.6902V5.33672C17.4409 5.30303 16.5896 5.22891 15.5969 5.22891C13.526 5.22891 12.1087 6.49346 12.1087 8.81367V10.8127H9.76826V13.5237H12.1109V19.0469H3.95312V3.95312H19.0469V19.0469Z" fill="white"/>
</svg>
