<svg width="23" height="23" viewBox="0 0 23 23" fill="none" xmlns="http://www.w3.org/2000/svg">
<path d="M16.1043 7.93069C16.676 7.93069 17.1393 7.4673 17.1393 6.89569C17.1393 6.32407 16.676 5.86069 16.1043 5.86069C15.5327 5.86069 15.0693 6.32407 15.0693 6.89569C15.0693 7.4673 15.5327 7.93069 16.1043 7.93069Z" fill="white"/>
<path d="M11.5 7.07092C10.624 7.07092 9.76773 7.33068 9.0394 7.81733C8.31106 8.30399 7.7434 8.9957 7.40818 9.80498C7.07296 10.6143 6.98526 11.5048 7.15615 12.3639C7.32704 13.223 7.74885 14.0122 8.36825 14.6316C8.98765 15.251 9.77681 15.6728 10.6359 15.8437C11.4951 16.0146 12.3856 15.9269 13.1949 15.5917C14.0041 15.2564 14.6959 14.6888 15.1825 13.9604C15.6692 13.2321 15.9289 12.3758 15.9289 11.4999C15.9289 10.3252 15.4623 9.19871 14.6317 8.36813C13.8011 7.53754 12.6746 7.07092 11.5 7.07092ZM11.5 14.3749C10.9314 14.3749 10.3755 14.2062 9.90272 13.8903C9.42993 13.5744 9.06143 13.1254 8.84383 12.6001C8.62623 12.0747 8.56929 11.4967 8.68023 10.939C8.79116 10.3813 9.06498 9.869 9.46705 9.46693C9.86913 9.06485 10.3814 8.79103 10.9391 8.6801C11.4968 8.56917 12.0749 8.6261 12.6002 8.84371C13.1255 9.06131 13.5746 9.4298 13.8905 9.9026C14.2064 10.3754 14.375 10.9312 14.375 11.4999C14.375 12.2624 14.0721 12.9936 13.5329 13.5328C12.9937 14.072 12.2625 14.3749 11.5 14.3749Z" fill="white"/>
<path d="M11.5 4.42894C13.8029 4.42894 14.076 4.43756 14.9852 4.47925C15.5321 4.48574 16.0737 4.58615 16.5866 4.77609C16.9587 4.91962 17.2966 5.13945 17.5786 5.42144C17.8605 5.70343 18.0804 6.04134 18.2239 6.41341C18.4138 6.92625 18.5143 7.46793 18.5208 8.01478C18.5624 8.924 18.5711 9.19712 18.5711 11.5007C18.5711 13.8043 18.5624 14.076 18.5208 14.9852C18.5143 15.5321 18.4138 16.0737 18.2239 16.5866C18.0804 16.9587 17.8605 17.2966 17.5786 17.5786C17.2966 17.8605 16.9587 18.0804 16.5866 18.2239C16.0737 18.4138 15.5321 18.5143 14.9852 18.5208C14.076 18.5624 13.8029 18.5711 11.5 18.5711C9.19712 18.5711 8.924 18.5624 8.01478 18.5208C7.46793 18.5143 6.92625 18.4138 6.41341 18.2239C6.04134 18.0804 5.70343 17.8605 5.42144 17.5786C5.13945 17.2966 4.91962 16.9587 4.77609 16.5866C4.58615 16.0737 4.48574 15.5321 4.47925 14.9852C4.43756 14.076 4.42894 13.8029 4.42894 11.5C4.42894 9.19712 4.43756 8.924 4.47925 8.01478C4.48574 7.46793 4.58615 6.92625 4.77609 6.41341C4.91962 6.04134 5.13945 5.70343 5.42144 5.42144C5.70343 5.13945 6.04134 4.91962 6.41341 4.77609C6.92625 4.58615 7.46793 4.48574 8.01478 4.47925C8.924 4.43756 9.19712 4.42894 11.5 4.42894ZM11.5 2.875C9.15759 2.875 8.86363 2.88506 7.94362 2.92675C7.22831 2.94119 6.52061 3.0768 5.85063 3.32781C5.27758 3.5494 4.75716 3.88828 4.32272 4.32272C3.88828 4.75716 3.5494 5.27758 3.32781 5.85063C3.07672 6.52084 2.94111 7.22878 2.92675 7.94434C2.88506 8.86434 2.875 9.15687 2.875 11.5C2.875 13.8431 2.88506 14.1364 2.92675 15.0564C2.94119 15.7717 3.0768 16.4794 3.32781 17.1494C3.5494 17.7224 3.88828 18.2428 4.32272 18.6773C4.75716 19.1117 5.27758 19.4506 5.85063 19.6722C6.52084 19.9233 7.22878 20.0589 7.94434 20.0732C8.86434 20.1149 9.15759 20.125 11.5 20.125C13.8424 20.125 14.1364 20.1149 15.0564 20.0732C15.7719 20.0589 16.4799 19.9233 17.1501 19.6722C17.7231 19.4506 18.2436 19.1117 18.678 18.6773C19.1124 18.2428 19.4513 17.7224 19.6729 17.1494C19.9237 16.4791 20.0591 15.7712 20.0732 15.0557C20.1149 14.1357 20.125 13.8431 20.125 11.5C20.125 9.15687 20.1149 8.86363 20.0732 7.94362C20.0588 7.22831 19.9232 6.52061 19.6722 5.85063C19.4506 5.27758 19.1117 4.75716 18.6773 4.32272C18.2428 3.88828 17.7224 3.5494 17.1494 3.32781C16.4791 3.07697 15.7712 2.9416 15.0557 2.92747C14.1357 2.88434 13.8431 2.875 11.5 2.875Z" fill="white"/>
</svg>
