<svg width="23" height="23" viewBox="0 0 23 23" fill="none" xmlns="http://www.w3.org/2000/svg">
<path d="M10.2254 14.468C9.7405 17.0804 9.15017 19.5855 7.39834 20.8936C6.85879 16.9453 8.19279 13.9792 8.81188 10.8311C7.75579 9.00067 8.93934 5.31588 11.1665 6.22342C13.9073 7.34084 8.79271 13.0295 12.2264 13.7406C15.8115 14.4823 17.2759 7.33605 15.0525 5.01113C11.8402 1.65601 5.70209 4.93542 6.45725 9.73955C6.64125 10.9145 7.81904 11.271 6.92779 12.8925C4.87217 12.4219 4.25884 10.7525 4.33838 8.5263C4.46488 4.88463 7.51717 2.33355 10.5781 1.98088C14.4498 1.5343 18.0828 3.44426 18.584 7.19422C19.1494 11.4262 16.837 16.0109 12.6979 15.6803C11.5757 15.5911 11.1042 15.019 10.2254 14.468Z" fill="white"/>
</svg>
