<svg width="23" height="23" viewBox="0 0 23 23" fill="none" xmlns="http://www.w3.org/2000/svg">
<path d="M15.9722 7.66667V5.78195C15.9722 5.19464 15.8565 4.61309 15.6318 4.0705C15.407 3.5279 15.0776 3.03489 14.6623 2.61961C14.247 2.20432 13.754 1.8749 13.2114 1.65015C12.6688 1.4254 12.0873 1.30972 11.5 1.30972C10.9127 1.30972 10.3311 1.4254 9.78854 1.65015C9.24595 1.8749 8.75293 2.20432 8.33765 2.61961C7.92236 3.03489 7.59294 3.5279 7.36819 4.0705C7.14344 4.61309 7.02776 5.19464 7.02776 5.78195V10.2542C7.02776 10.4236 7.09508 10.5861 7.21489 10.7059C7.33471 10.8257 7.49721 10.8931 7.66665 10.8931C7.8361 10.8931 7.9986 10.8257 8.11842 10.7059C8.23823 10.5861 8.30554 10.4236 8.30554 10.2542V8.94445H13.4167V7.66667H8.30554V5.78195C8.30554 4.93473 8.6421 4.12221 9.24117 3.52313C9.84025 2.92406 10.6528 2.5875 11.5 2.5875C12.3472 2.5875 13.1597 2.92406 13.7588 3.52313C14.3579 4.12221 14.6944 4.93473 14.6944 5.78195V10.2222C14.6944 10.3917 14.7617 10.5542 14.8816 10.674C15.0014 10.7938 15.1639 10.8611 15.3333 10.8611C15.5028 10.8611 15.6653 10.7938 15.7851 10.674C15.9049 10.5542 15.9722 10.3917 15.9722 10.2222V8.94445H19.1667V20.4444H3.83332V8.94445H5.74999V7.66667H2.55554V20.5019C2.55554 20.8256 2.68411 21.136 2.91295 21.3648C3.1418 21.5937 3.45218 21.7222 3.77582 21.7222H19.2242C19.5478 21.7222 19.8582 21.5937 20.087 21.3648C20.3159 21.136 20.4444 20.8256 20.4444 20.5019V7.66667H15.9722Z" fill="white"/>
</svg>
