<svg width="23" height="23" viewBox="0 0 23 23" fill="none" xmlns="http://www.w3.org/2000/svg">
<path d="M11.5 2.875C12.2108 2.875 12.9056 3.08577 13.4966 3.48066C14.0876 3.87554 14.5482 4.43681 14.8202 5.09348C15.0922 5.75015 15.1634 6.47274 15.0247 7.16986C14.886 7.86698 14.5438 8.50732 14.0412 9.00992C13.5386 9.51251 12.8982 9.85478 12.2011 9.99345C11.504 10.1321 10.7814 10.0609 10.1247 9.78894C9.46806 9.51694 8.90679 9.05632 8.51191 8.46533C8.11702 7.87434 7.90625 7.17953 7.90625 6.46875C7.90625 5.51563 8.28488 4.60154 8.95884 3.92759C9.6328 3.25363 10.5469 2.875 11.5 2.875ZM11.5 1.4375C10.5049 1.4375 9.53217 1.73258 8.70479 2.28542C7.8774 2.83826 7.23254 3.62403 6.85173 4.54337C6.47093 5.46272 6.37129 6.47433 6.56543 7.4503C6.75956 8.42627 7.23874 9.32275 7.94237 10.0264C8.646 10.73 9.54249 11.2092 10.5185 11.4033C11.4944 11.5975 12.506 11.4978 13.4254 11.117C14.3447 10.7362 15.1305 10.0913 15.6833 9.26396C16.2362 8.43658 16.5313 7.46384 16.5313 6.46875C16.5313 5.13438 16.0012 3.85466 15.0576 2.91112C14.1141 1.96758 12.8344 1.4375 11.5 1.4375Z" fill="white"/>
<path d="M18.6875 21.5625H17.25V17.9688C17.25 17.4968 17.157 17.0295 16.9764 16.5935C16.7958 16.1575 16.5311 15.7613 16.1974 15.4276C15.8637 15.0939 15.4675 14.8292 15.0315 14.6486C14.5955 14.468 14.1282 14.375 13.6563 14.375H9.34375C8.39063 14.375 7.47654 14.7536 6.80259 15.4276C6.12863 16.1015 5.75 17.0156 5.75 17.9688V21.5625H4.3125V17.9688C4.3125 16.6344 4.84258 15.3547 5.78612 14.4111C6.72966 13.4676 8.00938 12.9375 9.34375 12.9375H13.6563C14.9906 12.9375 16.2703 13.4676 17.2139 14.4111C18.1574 15.3547 18.6875 16.6344 18.6875 17.9688V21.5625Z" fill="white"/>
</svg>
